<svg xmlns="http://www.w3.org/2000/svg" width="29.637" height="34.345" viewBox="0 0 29.637 34.345"><g transform="translate(-4.325 -4.655)"><path d="M8.548,15.751c.009,1.817.03,4.393.03,4.911" transform="translate(5.64 17.456)" fill="none" stroke="#eef3f3" stroke-linecap="round" stroke-linejoin="round" stroke-miterlimit="1" stroke-width="1.75"/><path d="M25,38c0-.683.024-4.469.024-7.245a4.96,4.96,0,0,0-1.407-3.842c4.62-.514,9.473-2.268,9.473-10.236a8.012,8.012,0,0,0-2.135-5.568,7.445,7.445,0,0,0-.2-5.49s-1.74-.558-5.7,2.127a21.756,21.756,0,0,0-10.933,0C10.151,5.061,8.409,5.619,8.409,5.619a7.454,7.454,0,0,0-.2,5.49A8.028,8.028,0,0,0,6.07,16.678c0,7.949,4.844,9.728,9.452,10.253-.593.518-.859,4.288-1.046,5.629-1.184.53-4.187,1.447-6.037-1.725A4.362,4.362,0,0,0,5.259,28.7" fill="none" stroke="#eef3f3" stroke-linecap="round" stroke-linejoin="round" stroke-miterlimit="1" stroke-width="1.75"/></g></svg>