<svg xmlns="http://www.w3.org/2000/svg" width="31.31" height="33.639" viewBox="0 0 31.31 33.639"><path d="M26.67,19.144H20.736V40.609h6.146V30.775c0-2.609.492-5.115,3.708-5.115s3.223,2.964,3.223,5.279v9.67H39.96V29.634c0-5.3-1.127-10.189-7.383-10.189-2.308-.089-4.542.335-5.785,2.22a.075.075,0,0,1-.143-.041Zm-15.994,0h6.2V40.609h-6.2ZM13.763,8.47a3.6,3.6,0,1,0,3.585,3.613h0A3.585,3.585,0,0,0,13.763,8.47Z" transform="translate(-9.4 -7.72)" fill="none" stroke="#eef3f3" stroke-linecap="round" stroke-width="1.5"/></svg>